<svg id="Layer_4" data-name="Layer 4" xmlns="http://www.w3.org/2000/svg" viewBox="0 0 200 200"><defs><style>.cls-1{fill:#fff;}.cls-2{fill:#231f20;}.cls-3{fill:#005eb8;}</style></defs><title>NHS Digital logo_NHS Blue_RGB-110px</title><rect class="cls-1" x="24.54" y="40.48" width="151.18" height="60.21"/><path class="cls-2" d="M50.22,119.54h8.36c9.37,0,17.65,3.15,17.65,15.28S68,150.1,58.58,150.1H50.22V119.54Zm6.13,25.75h3.42a10.47,10.47,0,0,0,0-20.93H56.35v20.93Z"/><path class="cls-2" d="M80.56,117.83h5.87v5.6H80.56v-5.6Zm0,9.72h5.87V150.1H80.56V127.55Z"/><path class="cls-2" d="M112.44,127.55v20.36c0,6.13-2.45,11.91-11.91,11.91a19.83,19.83,0,0,1-7.79-1.53l0.48-5a16.93,16.93,0,0,0,6.57,2c6.48,0,6.79-4.86,6.79-8.76h-0.09a8.05,8.05,0,0,1-7,3.59c-6.66,0-9.19-5.34-9.19-11.38,0-5.43,2.8-11.69,9.55-11.69a7.49,7.49,0,0,1,6.92,3.59h0.09v-3.07h5.6Zm-5.87,11c0-3.85-1.49-7-4.9-7-4,0-5.25,3.68-5.25,7.14,0,3.06,1.62,6.83,5,6.83C105.08,145.54,106.57,142.35,106.57,138.58Z"/><path class="cls-2" d="M117.74,117.83h5.87v5.6h-5.87v-5.6Zm0,9.72h5.87V150.1h-5.87V127.55Z"/><path class="cls-2" d="M131.71,131.84h-4.33v-4.29h4.33V123l5.87-1.88v6.39h5.21v4.29h-5.21v10.51c0,1.93.53,3.72,2.76,3.72a5.24,5.24,0,0,0,2.67-.61l0.18,4.64a15.43,15.43,0,0,1-4.33.53c-4.6,0-7.14-2.85-7.14-7.31V131.84Z"/><path class="cls-2" d="M148.7,128.73a20.18,20.18,0,0,1,7.84-1.71c6.87,0,9.72,2.85,9.72,9.5v2.89c0,2.28,0,4,.09,5.65s0.13,3.28.26,5h-5.17a27.56,27.56,0,0,1-.26-3.37h-0.09a8.05,8.05,0,0,1-7,3.9c-4,0-7.88-2.41-7.88-6.7a6.63,6.63,0,0,1,3.85-6.44,17.86,17.86,0,0,1,7.57-1.31h3.24c0-3.63-1.62-4.86-5.08-4.86a11.8,11.8,0,0,0-7,2.45Zm6.87,17.6a5,5,0,0,0,4.12-2,7.48,7.48,0,0,0,1.23-4.64h-2.54c-2.63,0-6.52.44-6.52,3.9C151.85,145.5,153.47,146.33,155.57,146.33Z"/><path class="cls-2" d="M171.29,117.26h5.87V150.1h-5.87V117.26Z"/><path class="cls-3" d="M171.39,47.08L168.15,57a25.4,25.4,0,0,0-11.07-2.28c-5.32,0-9.64.78-9.64,4.79,0,7.08,19.49,4.44,19.49,19.61,0,13.81-12.88,17.39-24.53,17.39A56.33,56.33,0,0,1,126.87,94L130,83.79c2.65,1.72,8,2.87,12.37,2.87,4.18,0,10.72-.79,10.72-5.94,0-8-19.49-5-19.49-19.1,0-12.89,11.37-16.75,22.37-16.75,6.19,0,12,.65,15.39,2.22m-38.63-1.36-10.43,50H108.88l4.46-21.4H97.44L93,95.67H79.54L90,45.72h13.44L99.46,64.83h15.89l4-19.11h13.44ZM85,45.72l-10.64,50H57.67L47.18,61.11H47l-7,34.56H27.39l10.72-50H54.87L65.16,80.36H65.3l7-34.64H85Zm92.15-6H23v62.06H177.16V39.73Z"/></svg>